<svg width="120" height="233" viewBox="0 0 120 233" fill="none" xmlns="http://www.w3.org/2000/svg">
<path d="M101.5 61.8941C87.1671 39.4392 60.9648 49.8442 45.1399 3.71201C44.7639 2.61584 43 2.84237 43 4.00124V61.8941C109.976 76.3912 108.77 114.728 111.545 152.697C111.627 153.814 113.108 153.932 113.352 152.839C120.996 118.589 115.732 84.1902 101.5 61.8941Z" fill="black"/>
<path d="M43 61.8941C109.976 76.3912 108.77 114.728 111.545 152.697C111.627 153.814 113.108 153.932 113.352 152.839C120.996 118.589 115.732 84.1902 101.5 61.8941C87.1671 39.4392 60.9648 49.8442 45.1399 3.71201C44.7639 2.61584 43 2.84237 43 4.00124V61.8941ZM43 61.8941V109" stroke="black" stroke-width="6"/>
<path d="M43 224C22.5583 224 10 212.11 10 190C10 178.302 15.8002 165.784 23.5 155C41.3119 130.851 43 114.5 43 96C43 114.5 44.6881 130.851 62.5 155C70.1998 165.784 76 178.302 76 190C76 212.11 63.4417 224 43 224Z" fill="black" stroke="black" stroke-width="6"/>
</svg>
